<?xml version="1.0" encoding="utf-8"?>
<!-- Generator: Adobe Illustrator 24.1.3, SVG Export Plug-In . SVG Version: 6.00 Build 0)  -->
<svg version="1.1" id="Capa_1" xmlns="http://www.w3.org/2000/svg" xmlns:xlink="http://www.w3.org/1999/xlink" x="0px" y="0px"
	 viewBox="0 0 512 512" style="enable-background:new 0 0 512 512;" xml:space="preserve">
<style type="text/css">
	.st0{fill:#FFFFFF;}
</style>
<g>
	<g>
		<path class="st0" d="M256,0C114.8,0,0,114.8,0,256s114.8,256,256,256s256-114.8,256-256S397.2,0,256,0z M362.7,362.7H149.3
			c-11.8,0-21.3-9.6-21.3-21.3s9.5-21.3,21.3-21.3h213.3c11.8,0,21.3,9.6,21.3,21.3C384,353.1,374.5,362.7,362.7,362.7z
			 M362.7,277.3H149.3c-11.8,0-21.3-9.6-21.3-21.3s9.5-21.3,21.3-21.3h213.3c11.8,0,21.3,9.6,21.3,21.3S374.5,277.3,362.7,277.3z
			 M362.7,192H149.3c-11.8,0-21.3-9.6-21.3-21.3s9.5-21.3,21.3-21.3h213.3c11.8,0,21.3,9.6,21.3,21.3S374.5,192,362.7,192z"/>
	</g>
</g>
</svg>
